<svg width="450" height="338" viewBox="0 0 450 338" fill="none" xmlns="http://www.w3.org/2000/svg">
<path opacity="0.3" d="M217.102 292.354C315.495 292.354 395.257 283.303 395.257 272.138C395.257 260.973 315.495 251.921 217.102 251.921C118.71 251.921 38.9473 260.973 38.9473 272.138C38.9473 283.303 118.71 292.354 217.102 292.354Z" fill="#E6E6E6"/>
<path d="M93.3746 151.065C93.3746 151.065 66.9034 163.744 63.4496 192.96C59.9959 222.176 50.2421 278.595 122.051 275.377C193.86 272.16 227.722 268.155 210.791 213.289C193.86 158.422 93.3746 151.065 93.3746 151.065Z" fill="#FFD200"/>
<path opacity="0.09" d="M90.6638 166.241C89.9215 170.364 90.4352 174.615 92.1383 178.443C93.8414 182.27 96.6553 185.498 100.215 187.706C109.958 194.13 124.965 216.956 136.586 228.499C138.4 230.297 139.833 232.442 140.799 234.806C141.766 237.17 142.246 239.704 142.211 242.258C142.211 244.339 143.055 246.645 145.8 248.895C153.878 255.499 187.774 258.795 206.73 238.478C225.686 218.16 200.689 208.103 200.689 208.103L117.371 163.001L90.6638 166.241Z" fill="black"/>
<path d="M274.837 265.703C274.837 265.703 276.604 270.203 281.036 271.17C285.469 272.138 287.876 277.628 278.19 276.795C268.504 275.963 263.182 277.425 264.577 272.104C265.972 266.783 265.342 265.984 265.342 265.984L274.837 265.703Z" fill="#F4A28C"/>
<path d="M209.79 261.956C209.79 261.956 209.048 266.692 212.344 269.831C215.64 272.97 214.943 278.831 207.057 273.206C199.17 267.581 193.827 266.107 197.73 262.237C201.634 258.367 201.499 257.355 201.499 257.355L209.79 261.956Z" fill="#F4A28C"/>
<path d="M218.25 194.625C218.25 194.625 277.481 195.233 276.907 265.871L262.935 268.245C262.935 268.245 260.246 193.646 183.273 229.185L187.29 199.8L218.25 194.625Z" fill="#24285B"/>
<path opacity="0.09" d="M218.25 194.625C218.25 194.625 277.481 195.233 276.907 265.871L262.935 268.245C262.935 268.245 260.246 193.646 183.273 229.185L187.29 199.8L218.25 194.625Z" fill="black"/>
<path d="M222.896 129.6L228.038 130.973L224.381 127.035L222.896 129.6Z" fill="#FFD200"/>
<path d="M142.099 164.565C142.099 164.565 152.336 190.44 177.322 185.884C202.309 181.328 211.804 128.914 211.804 128.914C211.804 128.914 221.681 122.49 216.9 115.324C212.119 108.158 204.345 123.66 204.345 123.66C204.345 123.66 193.579 167.828 170.28 153.506L142.099 164.565Z" fill="#F4A28C"/>
<path opacity="0.09" d="M142.099 164.565C142.099 164.565 152.336 190.44 177.322 185.884C202.309 181.328 211.804 128.914 211.804 128.914C211.804 128.914 221.681 122.49 216.9 115.324C212.119 108.158 204.345 123.66 204.345 123.66C204.345 123.66 193.579 167.828 170.28 153.506L142.099 164.565Z" fill="black"/>
<path d="M142.414 112.005L147.814 113.13C147.814 113.13 189.551 135.787 181.789 158.479C174.026 181.17 190.98 202.714 190.98 202.714L154.688 228.274C154.688 228.274 107.28 204.75 114.379 139.95C114.379 139.95 117.675 109.766 142.414 112.005Z" fill="#335AFF"/>
<path d="M238.329 124.815L231.485 121.524L203.39 179.954L210.234 183.245L238.329 124.815Z" fill="#E6E6E6"/>
<path opacity="0.58" d="M335.25 261C335.25 261 323.73 257.85 321.222 247.129C321.222 247.129 339.075 243.517 339.582 261.945L335.25 261Z" fill="#335AFF"/>
<path opacity="0.73" d="M336.634 259.875C336.634 259.875 328.579 247.151 335.666 235.249C335.666 235.249 349.245 243.866 343.215 259.909L336.634 259.875Z" fill="#335AFF"/>
<path d="M338.704 259.875C338.704 259.875 342.957 246.431 355.815 243.889C355.815 243.889 358.234 252.619 347.49 259.909L338.704 259.875Z" fill="#335AFF"/>
<path d="M330.345 259.549L332.685 275.535L347.4 275.591L349.571 259.628L330.345 259.549Z" fill="#24285B"/>
<path opacity="0.66" d="M310.264 38.5762H228.611V95.7487H310.264V38.5762Z" fill="#E6E6E6"/>
<path opacity="0.43" d="M383.524 118.665H309.78V170.303H383.524V118.665Z" fill="#E6E6E6"/>
<path d="M250.155 65.1488C255.417 65.1488 259.683 60.8826 259.683 55.6201C259.683 50.3575 255.417 46.0913 250.155 46.0913C244.892 46.0913 240.626 50.3575 240.626 55.6201C240.626 60.8826 244.892 65.1488 250.155 65.1488Z" fill="#E6E6E6"/>
<path opacity="0.45" d="M298.181 47.5312H271.35V84.8025H298.181V47.5312Z" fill="#C1C1C1"/>
<path d="M260.696 72.3037H242.269V84.8025H260.696V72.3037Z" fill="#C1C1C1"/>
<path d="M140.434 83.5425L132.919 110.036L147.814 113.13L147.308 92.61L140.434 83.5425Z" fill="#F4A28C"/>
<path opacity="0.31" d="M147.612 97.0988C145.804 96.3938 144.24 95.1782 143.112 93.6001C143.112 93.6001 142.729 98.6289 147.612 104.22V97.0988Z" fill="#CE8172"/>
<path d="M155.857 84.3752C155.857 84.3752 155.115 92.7452 152.752 97.9765C152.524 98.4864 152.197 98.9459 151.789 99.328C151.382 99.7101 150.902 100.007 150.378 100.202C149.855 100.397 149.298 100.485 148.739 100.462C148.181 100.44 147.633 100.306 147.127 100.069C144.506 98.8427 141.322 96.424 141.176 91.8902L139.983 84.229C139.908 82.6694 140.318 81.1249 141.156 79.8075C141.994 78.4901 143.219 77.4645 144.663 76.8715C149.951 74.2502 156.566 79.2452 155.857 84.3752Z" fill="#F4A28C"/>
<path d="M145.811 89.8425C145.811 89.8425 146.317 86.6475 143.876 86.4675C141.435 86.2875 140.681 90.9 143.876 91.9013L145.811 89.8425Z" fill="#F4A28C"/>
<path d="M155.115 89.561L156.859 93.161C156.957 93.3658 157.002 93.5922 156.99 93.8191C156.978 94.0461 156.909 94.2662 156.788 94.4592C156.668 94.6522 156.502 94.8117 156.303 94.923C156.105 95.0344 155.882 95.0939 155.655 95.096H152.393L155.115 89.561Z" fill="#F4A28C"/>
<path d="M224.387 127.034L198.686 112.195L197.206 114.757L222.908 129.596L224.387 127.034Z" fill="#24285B"/>
<path opacity="0.18" d="M163.013 214.2L154.688 228.273C154.688 228.273 124.504 213.648 115.853 174.071C107.201 134.493 135.743 149.917 135.743 149.917L163.013 214.2Z" fill="black"/>
<path d="M154.688 228.274C154.688 228.274 182.655 171.259 224.01 171.472C265.365 171.686 211.635 263.475 211.635 263.475L198 257.929C198 257.929 218.25 218.554 213.097 205.875C207.945 193.196 200.07 280.654 154.688 228.274Z" fill="#24285B"/>
<path d="M130.758 115.2C130.758 115.2 143.201 108.889 149.523 121.714C155.846 134.539 150.862 189.697 176.523 192.589C202.185 195.48 215.201 168.75 215.201 168.75C215.201 168.75 217.316 157.5 220.826 155.632C224.336 153.765 227.43 165.589 220.826 172.507C220.826 172.507 209.508 215.021 173.576 215.977C137.643 216.934 95.3321 144.315 130.758 115.2Z" fill="#F4A28C"/>
<path d="M155.914 73.4627C155.914 73.4627 164.092 83.0814 153.506 85.0952C142.92 87.1089 140.737 89.0102 141.75 99.7202C142.762 110.43 146.959 120.296 132.919 127.013C118.879 133.729 130.95 145.013 128.362 158.175C125.775 171.338 113.434 180.428 97.6273 171.45C81.821 162.473 72.0673 139.5 89.0098 125.741C105.952 111.983 127.26 108.641 127.26 86.4564C127.26 64.2714 144.967 63.1239 155.914 73.4627Z" fill="#24285B"/>
<path opacity="0.43" d="M333.214 156.51C339.514 156.51 344.622 151.403 344.622 145.102C344.622 138.802 339.514 133.695 333.214 133.695C326.914 133.695 321.807 138.802 321.807 145.102C321.807 151.403 326.914 156.51 333.214 156.51Z" fill="#C1C1C1"/>
<path opacity="0.43" d="M351.675 127.62H331.841V147.454H351.675V127.62Z" fill="#C1C1C1"/>
<path opacity="0.43" d="M372.949 127.62H358.155V160.493H372.949V127.62Z" fill="#C1C1C1"/>
<path d="M223.556 171.762L213.075 167.766L210.819 173.684L221.299 177.68L223.556 171.762Z" fill="#335AFF"/>
<path opacity="0.44" d="M223.556 171.762L213.075 167.766L210.819 173.684L221.299 177.68L223.556 171.762Z" fill="white"/>
</svg>
