<svg width="450" height="338" viewBox="0 0 450 338" fill="none" xmlns="http://www.w3.org/2000/svg">
<path opacity="0.45" d="M120.69 297.596C167.245 297.596 204.986 290.444 204.986 281.621C204.986 272.799 167.245 265.646 120.69 265.646C74.1343 265.646 36.3936 272.799 36.3936 281.621C36.3936 290.444 74.1343 297.596 120.69 297.596Z" fill="#E6E6E6"/>
<path d="M384.694 46.7437H127.227V228.375H384.694V46.7437Z" fill="#E6E6E6"/>
<path d="M147.994 67.9952C150.728 67.9952 152.944 65.779 152.944 63.0452C152.944 60.3114 150.728 58.0952 147.994 58.0952C145.26 58.0952 143.044 60.3114 143.044 63.0452C143.044 65.779 145.26 67.9952 147.994 67.9952Z" fill="#24285B"/>
<path d="M162.731 67.9952C165.465 67.9952 167.681 65.779 167.681 63.0452C167.681 60.3114 165.465 58.0952 162.731 58.0952C159.997 58.0952 157.781 60.3114 157.781 63.0452C157.781 65.779 159.997 67.9952 162.731 67.9952Z" fill="#335AFF"/>
<path d="M176.602 67.9952C179.336 67.9952 181.552 65.779 181.552 63.0452C181.552 60.3114 179.336 58.0952 176.602 58.0952C173.869 58.0952 171.652 60.3114 171.652 63.0452C171.652 65.779 173.869 67.9952 176.602 67.9952Z" fill="#FFD200"/>
<path d="M75.7129 70.5601V91.2263H89.0666L91.9804 99.4501L95.4341 91.2263H108.788V70.5601H75.7129Z" fill="#E6E6E6"/>
<path opacity="0.12" d="M90.585 85.5C90.435 85.4939 90.288 85.4556 90.154 85.3877C90.0201 85.3198 89.9023 85.2238 89.8088 85.1063L86.3213 80.6063C86.2365 80.4997 86.1738 80.3773 86.1369 80.2462C86.1 80.1151 86.0897 79.978 86.1064 79.8428C86.1232 79.7077 86.1667 79.5772 86.2345 79.4591C86.3023 79.341 86.393 79.2376 86.5013 79.155C86.6091 79.0723 86.7322 79.0116 86.8635 78.9764C86.9948 78.9413 87.1318 78.9323 87.2665 78.9501C87.4013 78.9678 87.5312 79.0119 87.6489 79.0799C87.7666 79.1479 87.8698 79.2384 87.9525 79.3463L90.6975 82.8788L97.4475 75.5663C97.5391 75.4673 97.6493 75.3873 97.7718 75.3309C97.8943 75.2745 98.0268 75.2428 98.1615 75.2376C98.2963 75.2324 98.4307 75.2537 98.5573 75.3005C98.6838 75.3472 98.7998 75.4184 98.8988 75.51C98.9978 75.6016 99.0777 75.7118 99.1341 75.8343C99.1905 75.9568 99.2223 76.0892 99.2275 76.224C99.2327 76.3588 99.2113 76.4932 99.1646 76.6197C99.1178 76.7462 99.0466 76.8623 98.955 76.9613L91.3613 85.1738C91.2629 85.2807 91.1426 85.3651 91.0087 85.4214C90.8747 85.4777 90.7303 85.5045 90.585 85.5Z" fill="black"/>
<path opacity="0.08" d="M134.91 85.0049C134.91 85.0049 140.096 86.4674 139.804 94.7024C139.736 96.567 139.449 98.4172 138.949 100.215C136.854 107.424 136.276 114.99 137.25 122.434L137.318 122.895L186.188 171L196.515 115.639L197.449 96.8174C197.449 96.8174 205.594 95.4561 205.875 101.846C206.156 108.236 203.625 121.185 203.625 121.185L207.124 122.861C207.124 122.861 214.673 181.091 196.346 188.111C186.986 191.711 177.289 190.08 169.583 190.721C167.36 190.917 165.243 191.756 163.489 193.135C161.735 194.514 160.42 196.373 159.704 198.487C158.989 200.6 158.904 202.876 159.459 205.037C160.014 207.197 161.187 209.15 162.833 210.656C166.928 214.447 171.045 220.286 170.708 228.33H127.226L128.464 192.611L126.214 102.611L134.91 85.0049Z" fill="black"/>
<path d="M156.465 165.15L178.493 180.574C180.461 181.952 182.765 182.77 185.162 182.942C187.558 183.114 189.956 182.633 192.101 181.551C194.245 180.468 196.056 178.824 197.341 176.794C198.625 174.764 199.335 172.423 199.395 170.021L200.52 123.615H189.911L185.344 159.75C185.344 159.75 177.379 130.309 143.066 116.933C108.754 103.556 111.69 135.506 156.465 165.15Z" fill="#335AFF"/>
<path opacity="0.46" d="M156.465 165.15L178.493 180.574C180.461 181.952 182.765 182.77 185.162 182.942C187.558 183.114 189.956 182.633 192.101 181.551C194.245 180.468 196.056 178.824 197.341 176.794C198.625 174.764 199.335 172.423 199.395 170.021L200.52 123.615H189.911L185.344 159.75C185.344 159.75 177.379 130.309 143.066 116.933C108.754 103.556 111.69 135.506 156.465 165.15Z" fill="white"/>
<path d="M132.75 92.9251C133.196 95.9589 133.234 99.0387 132.863 102.083C132.801 102.446 132.667 102.792 132.469 103.103C132.271 103.413 132.013 103.681 131.71 103.891C131.407 104.1 131.066 104.247 130.705 104.323C130.345 104.399 129.973 104.402 129.611 104.333C128.443 104.176 127.345 103.686 126.447 102.922C125.549 102.158 124.89 101.152 124.549 100.024L122.625 95.2651C122.335 94.282 122.357 93.2329 122.69 92.2633C123.023 91.2937 123.649 90.4516 124.481 89.8538C127.395 87.4351 132.379 89.5726 132.75 92.9251Z" fill="#F4A28C"/>
<path d="M123.626 96.5923L119.79 114.255L129.679 115.672L128.498 102.251L123.626 96.5923Z" fill="#F4A28C"/>
<path d="M122.119 99.5852C122.127 99.7004 122.173 99.8094 122.251 99.8951C122.328 99.9807 122.432 100.038 122.546 100.058C123.328 100.229 124.144 100.139 124.869 99.8013C125.595 99.464 126.189 98.898 126.562 98.1902C127.01 97.4124 127.22 96.5205 127.166 95.6247C127.112 94.7289 126.796 93.8686 126.259 93.1502C127.948 93.3767 129.659 93.4031 131.355 93.229C131.927 93.18 132.487 93.0316 133.009 92.7902L134.134 88.5715C134.134 88.5715 136.147 84.3077 133.661 83.554C131.175 82.8002 130.185 85.6465 128.104 83.7565C126.022 81.8665 125.527 81.1352 123.536 82.339C121.545 83.5427 123.964 85.0277 120.622 85.1965C117.281 85.3652 117.247 86.749 117.337 88.2677C117.429 88.7832 117.676 89.2582 118.046 89.629C120.449 92.4172 121.879 95.9122 122.119 99.5852Z" fill="#24285B"/>
<path d="M127.125 97.9876C127.125 97.9876 126.945 95.8726 125.37 96.1313C123.795 96.3901 124.009 99.5063 126.191 99.6076L127.125 97.9876Z" fill="#F4A28C"/>
<path opacity="0.08" d="M196.099 92.7675L295.594 73.125V130.5L196.099 110.621V92.7675Z" fill="url(#paint0_linear)"/>
<path d="M133.042 96.3901L134.707 98.4151C134.8 98.531 134.863 98.6684 134.889 98.8148C134.915 98.9611 134.904 99.1117 134.857 99.2527C134.81 99.3937 134.729 99.5207 134.62 99.622C134.511 99.7234 134.379 99.7958 134.235 99.8326L132.153 100.35L133.042 96.3901Z" fill="#F4A28C"/>
<path opacity="0.31" d="M128.621 104.04C128.621 104.04 127.35 103.871 124.998 101.88C124.998 101.88 124.807 105.491 129.003 107.977L128.621 104.04Z" fill="#CE8172"/>
<path d="M81.2137 131.816C81.8316 126.522 84.3506 121.631 88.3027 118.053C92.2548 114.476 97.3712 112.455 102.701 112.365C118.249 112.084 144.326 113.344 158.085 123.716C178.414 139.084 138.105 200.216 138.105 200.216L99.9225 197.674C99.9225 197.674 78.1087 159.176 81.2137 131.816Z" fill="#335AFF"/>
<path d="M146.248 146.131L116.309 142.477L111.769 179.663L141.708 183.318L146.248 146.131Z" fill="#FFD200"/>
<path opacity="0.08" d="M109.89 123.75C109.89 123.75 115.054 141.986 106.785 154.71C98.5166 167.434 100.98 176.625 109.125 176.625C117.27 176.625 133.515 167.074 133.515 167.074L134.134 168.3C135.074 170.156 135.391 172.266 135.038 174.316C134.686 176.367 133.682 178.249 132.177 179.685L112.5 198.484L99.8891 197.64C99.8891 197.64 87.5141 174.634 85.6804 164.497C83.8466 154.361 109.89 123.75 109.89 123.75Z" fill="black"/>
<path d="M109.125 134.91C115.189 122.828 102.836 109.778 90.371 114.998C84.2764 117.375 79.2489 121.879 76.2185 127.676C66.0935 147.623 43.976 173.07 62.2235 185.805C80.471 198.54 125.01 176.895 125.01 176.895L121.961 166.77C121.961 166.77 89.336 177.773 78.3448 170.561C78.3335 170.528 98.3023 156.465 109.125 134.91Z" fill="#335AFF"/>
<path opacity="0.46" d="M109.125 134.91C115.189 122.828 102.836 109.778 90.371 114.998C84.2764 117.375 79.2489 121.879 76.2185 127.676C66.0935 147.623 43.976 173.07 62.2235 185.805C80.471 198.54 125.01 176.895 125.01 176.895L121.961 166.77C121.961 166.77 89.336 177.773 78.3448 170.561C78.3335 170.528 98.3023 156.465 109.125 134.91Z" fill="white"/>
<path d="M122.704 169.245C122.704 169.245 129.837 163.912 133.527 167.085C137.217 170.257 124.729 175.995 124.729 175.995L122.704 169.245Z" fill="#F4A28C"/>
<path d="M99.9223 197.64L80.2686 275.625L89.3473 275.873L108.956 230.22C114.501 217.323 124.477 206.836 137.081 200.655L138.139 200.138L99.9223 197.64Z" fill="#24285B"/>
<path d="M138.105 200.183L146.34 213.863C149.116 218.473 150.894 223.615 151.561 228.955C152.227 234.295 151.767 239.716 150.21 244.868L140.827 275.918H132.154L136.507 242.854C137.006 239.087 136.628 235.256 135.402 231.66C134.177 228.063 132.137 224.799 129.442 222.12L115.054 207.821L138.105 200.183Z" fill="#24285B"/>
<path d="M197.449 107.752H194.749V123.615H197.449V107.752Z" fill="#FFD200"/>
<path opacity="0.08" d="M197.449 107.752H194.749V123.615H197.449V107.752Z" fill="black"/>
<path d="M196.098 110.633C199.454 110.633 202.173 106.633 202.173 101.7C202.173 96.7668 199.454 92.7676 196.098 92.7676C192.743 92.7676 190.023 96.7668 190.023 101.7C190.023 106.633 192.743 110.633 196.098 110.633Z" fill="#FFD200"/>
<path opacity="0.46" d="M196.098 106.537C197.913 106.537 199.383 104.371 199.383 101.7C199.383 99.0281 197.913 96.8623 196.098 96.8623C194.284 96.8623 192.813 99.0281 192.813 101.7C192.813 104.371 194.284 106.537 196.098 106.537Z" fill="white"/>
<path d="M87.4802 275.794C87.4802 275.794 88.3014 279.754 91.6652 280.53C95.0289 281.306 95.4339 284.771 92.2502 285.199C89.0664 285.626 81.7314 280.552 81.7314 280.552L82.6652 275.67L87.4802 275.794Z" fill="#335AFF"/>
<path d="M139.208 275.794C139.208 275.794 140.018 279.754 143.381 280.53C146.745 281.306 147.15 284.771 143.966 285.199C140.783 285.626 133.459 280.552 133.459 280.552L134.381 275.67L139.208 275.794Z" fill="#335AFF"/>
<path d="M192.06 123.615C192.06 123.615 191.103 117.079 196.56 115.672C202.016 114.266 200.587 123.615 200.587 123.615H192.06Z" fill="#F4A28C"/>
<path d="M407.914 73.125H299.262V215.629H407.914V73.125Z" fill="#F2F2F2"/>
<path d="M353.587 152.528C369.555 152.528 382.5 139.583 382.5 123.615C382.5 107.647 369.555 94.7026 353.587 94.7026C337.619 94.7026 324.675 107.647 324.675 123.615C324.675 139.583 337.619 152.528 353.587 152.528Z" stroke="#E6E6E6" stroke-width="8" stroke-miterlimit="10"/>
<path d="M353.587 152.527C346.517 152.539 339.689 149.948 334.406 145.249" stroke="#24285B" stroke-width="8" stroke-miterlimit="10"/>
<path d="M353.588 94.7026C361.256 94.7026 368.61 97.7488 374.032 103.171C379.454 108.593 382.5 115.947 382.5 123.615" stroke="#335AFF" stroke-width="8" stroke-miterlimit="10"/>
<path d="M382.5 123.615C382.5 131.283 379.454 138.637 374.032 144.059C368.61 149.481 361.256 152.527 353.588 152.527" stroke="#FFD200" stroke-width="8" stroke-miterlimit="10"/>
<path d="M354.375 111.105C355.027 111.105 355.218 111.33 355.218 111.971V113.355C356.358 113.472 357.443 113.899 358.357 114.589C359.272 115.279 359.98 116.206 360.405 117.27C360.742 117.945 360.596 118.305 359.842 118.642L358.458 119.261C357.817 119.576 357.502 119.43 357.142 118.755C356.85 118.056 356.342 117.47 355.692 117.081C355.042 116.692 354.285 116.522 353.531 116.595C351.135 116.595 350.043 117.292 350.043 118.845C350.098 119.335 350.321 119.791 350.674 120.135C351.026 120.479 351.487 120.691 351.978 120.735C352.649 120.882 353.33 120.984 354.015 121.039C355.291 121.106 356.552 121.352 357.761 121.77C358.361 121.969 358.921 122.274 359.415 122.67C359.914 123.196 360.303 123.816 360.56 124.494C360.817 125.172 360.936 125.894 360.911 126.619C360.911 129.69 358.852 131.771 355.218 132.3V133.875C355.218 134.516 355.027 134.741 354.375 134.741H352.833C352.181 134.741 351.956 134.516 351.956 133.875V132.435C350.695 132.345 349.489 131.885 348.488 131.112C347.488 130.34 346.737 129.289 346.331 128.092C346.106 127.474 346.331 127.057 346.983 126.799L348.367 126.292C349.065 126.045 349.38 126.214 349.683 126.911C349.969 127.669 350.496 128.313 351.183 128.742C351.87 129.171 352.679 129.362 353.486 129.285C356.073 129.285 357.378 128.464 357.378 126.799C357.396 126.415 357.287 126.036 357.067 125.72C356.847 125.405 356.53 125.171 356.163 125.055C355.264 124.745 354.324 124.567 353.373 124.526C352.082 124.447 350.811 124.17 349.605 123.705C349.007 123.492 348.451 123.176 347.962 122.771C347.457 122.274 347.062 121.677 346.8 121.018C346.539 120.36 346.417 119.654 346.443 118.946C346.443 115.909 348.367 113.872 351.967 113.4V111.971C351.967 111.33 352.192 111.105 352.845 111.105H354.375Z" fill="#A5A5A5"/>
<path d="M372.938 168.75H336.004V177.75H372.938V168.75Z" fill="#A5A5A5"/>
<path opacity="0.19" d="M372.938 186.75H336.004V195.75H372.938V186.75Z" fill="#A5A5A5"/>
<path d="M288.417 193.871H207.124V214.121H288.417V193.871Z" fill="white"/>
<path d="M288.416 193.871H260.37V214.121H288.416V193.871Z" fill="#335AFF"/>
<path d="M247.759 155.644H234.9V175.995H247.759V155.644Z" fill="#335AFF"/>
<path d="M229.365 167.647H216.506V175.995H229.365V167.647Z" fill="#335AFF"/>
<path d="M265.511 137.7H252.652V175.995H265.511V137.7Z" fill="#335AFF"/>
<path d="M284.917 115.684H272.059V175.995H284.917V115.684Z" fill="#335AFF"/>
<path opacity="0.08" d="M247.759 155.644H234.9V175.995H247.759V155.644Z" fill="black"/>
<path opacity="0.08" d="M284.917 115.684H272.059V175.995H284.917V115.684Z" fill="black"/>
<defs>
<linearGradient id="paint0_linear" x1="291.892" y1="101.621" x2="203.389" y2="97.1213" gradientUnits="userSpaceOnUse">
<stop stop-color="#E6E6E6" stop-opacity="0"/>
<stop offset="1"/>
</linearGradient>
</defs>
</svg>
